<svg width="21" height="15" viewBox="0 0 21 15" fill="none" xmlns="http://www.w3.org/2000/svg">
<path d="M8.54297 0C8.01694 0 7.59375 0.417969 7.59375 0.9375C7.59375 1.45703 8.01694 1.875 8.54297 1.875H9.17578V3.17578C4.73027 3.64062 1.26562 7.35938 1.26562 11.875H18.9844C18.9844 7.35938 15.5197 3.64062 11.0742 3.17578V1.875H11.707C12.2331 1.875 12.6562 1.45703 12.6562 0.9375C12.6562 0.417969 12.2331 0 11.707 0H10.125H8.54297ZM0.949219 13.125C0.423193 13.125 0 13.543 0 14.0625C0 14.582 0.423193 15 0.949219 15H19.3008C19.8268 15 20.25 14.582 20.25 14.0625C20.25 13.543 19.8268 13.125 19.3008 13.125H0.949219Z" fill="currentColor"/>
</svg>
