<svg width="20" height="20" viewBox="0 0 20 20" fill="none" xmlns="http://www.w3.org/2000/svg">
<path opacity="0.5" d="M17.7778 0H14.7778H5.22222H2.22222C1.63285 0 1.06762 0.234126 0.650874 0.650874C0.234126 1.06762 0 1.63285 0 2.22222V5.22222V14.8889V17.7778C0 18.3671 0.234126 18.9324 0.650874 19.3491C1.06762 19.7659 1.63285 20 2.22222 20H5.22222H14.8889H17.7778C18.3671 20 18.9324 19.7659 19.3491 19.3491C19.7659 18.9324 20 18.3671 20 17.7778V14.7778V5.22222V2.22222C20 1.63285 19.7659 1.06762 19.3491 0.650874C18.9324 0.234126 18.3671 0 17.7778 0ZM14 15.5556L10 11.5556L6 15.5556L4.44444 14L8.44445 10L4.44444 6L6 4.44444L10 8.44445L14 4.44444L15.5556 6L11.5556 10L15.5556 14L14 15.5556Z" fill="white"/>
</svg>
