<svg width="60" height="60" viewBox="0 0 60 60" fill="none" xmlns="http://www.w3.org/2000/svg">
<g clip-path="url(#clip0_7_8985)">
<path fill-rule="evenodd" clip-rule="evenodd" d="M50 7.5H10C7.25 7.5 5 9.75 5 12.5V47.5C5 50.25 7.25 52.5 10 52.5H50C52.75 52.5 55 50.25 55 47.5V12.5C55 9.75 52.75 7.5 50 7.5ZM50 47.5H10V12.5H50V47.5Z" fill="url(#paint0_linear_7_8985)"/>
<path fill-rule="evenodd" clip-rule="evenodd" d="M48.525 26.05L44.975 22.5L37.05 30.425L33.525 26.875L30 30.4L37.05 37.5L48.525 26.05Z" fill="url(#paint1_linear_7_8985)"/>
<path d="M25 17.5H12.5V22.5H25V17.5Z" fill="url(#paint2_linear_7_8985)"/>
<path d="M25 27.5H12.5V32.5H25V27.5Z" fill="url(#paint3_linear_7_8985)"/>
<path d="M25 37.5H12.5V42.5H25V37.5Z" fill="url(#paint4_linear_7_8985)"/>
</g>
<defs>
<linearGradient id="paint0_linear_7_8985" x1="30" y1="7.5" x2="30" y2="52.5" gradientUnits="userSpaceOnUse">
<stop stop-color="#6666CC"/>
<stop offset="0.5" stop-color="#8484DC"/>
<stop offset="1" stop-color="#6666CC"/>
</linearGradient>
<linearGradient id="paint1_linear_7_8985" x1="3.75" y1="6.75" x2="58.5" y2="55.5" gradientUnits="userSpaceOnUse">
<stop offset="0.00957103" stop-color="#6666CC"/>
<stop offset="0.5" stop-color="#8484DC"/>
<stop offset="1" stop-color="#6666CC"/>
</linearGradient>
<linearGradient id="paint2_linear_7_8985" x1="18.75" y1="17.5" x2="18.75" y2="22.5" gradientUnits="userSpaceOnUse">
<stop stop-color="#6666CC"/>
<stop offset="0.5" stop-color="#8484DC"/>
<stop offset="1" stop-color="#6666CC"/>
</linearGradient>
<linearGradient id="paint3_linear_7_8985" x1="18.75" y1="27.5" x2="18.75" y2="32.5" gradientUnits="userSpaceOnUse">
<stop stop-color="#6666CC"/>
<stop offset="0.5" stop-color="#8484DC"/>
<stop offset="1" stop-color="#6666CC"/>
</linearGradient>
<linearGradient id="paint4_linear_7_8985" x1="18.75" y1="37.5" x2="18.75" y2="42.5" gradientUnits="userSpaceOnUse">
<stop stop-color="#6666CC"/>
<stop offset="0.5" stop-color="#8484DC"/>
<stop offset="1" stop-color="#6666CC"/>
</linearGradient>
<clipPath id="clip0_7_8985">
<rect width="60" height="60" fill="white"/>
</clipPath>
</defs>
</svg>
