<svg width="40" height="40" viewBox="0 0 40 40" fill="none" xmlns="http://www.w3.org/2000/svg">
<g clip-path="url(#clip0_1_3300)">
<path d="M20 3.33325C10.8 3.33325 3.33337 10.7999 3.33337 19.9999C3.33337 29.1999 10.8 36.6666 20 36.6666C29.2 36.6666 36.6667 29.1999 36.6667 19.9999C36.6667 10.7999 29.2 3.33325 20 3.33325ZM20 33.3333C12.6334 33.3333 6.66671 27.3666 6.66671 19.9999C6.66671 12.6333 12.6334 6.66659 20 6.66659C27.3667 6.66659 33.3334 12.6333 33.3334 19.9999C33.3334 27.3666 27.3667 33.3333 20 33.3333Z" fill="#F2F0FF"/>
<path d="M11.6667 22.5C13.0475 22.5 14.1667 21.3807 14.1667 20C14.1667 18.6193 13.0475 17.5 11.6667 17.5C10.286 17.5 9.16675 18.6193 9.16675 20C9.16675 21.3807 10.286 22.5 11.6667 22.5Z" fill="#F2F0FF"/>
<path d="M20 22.5C21.3807 22.5 22.5 21.3807 22.5 20C22.5 18.6193 21.3807 17.5 20 17.5C18.6193 17.5 17.5 18.6193 17.5 20C17.5 21.3807 18.6193 22.5 20 22.5Z" fill="#F2F0FF"/>
<path d="M28.3334 22.5C29.7141 22.5 30.8334 21.3807 30.8334 20C30.8334 18.6193 29.7141 17.5 28.3334 17.5C26.9527 17.5 25.8334 18.6193 25.8334 20C25.8334 21.3807 26.9527 22.5 28.3334 22.5Z" fill="#F2F0FF"/>
</g>
<defs>
<clipPath id="clip0_1_3300">
<rect width="40" height="40" fill="white"/>
</clipPath>
</defs>
</svg>
