<svg width="60" height="60" viewBox="0 0 60 60" fill="none" xmlns="http://www.w3.org/2000/svg">
<path d="M13.5 59C11.9875 59 10.6927 58.4591 9.61563 57.3774C8.53854 56.2956 8 54.9952 8 53.4762V25.8571C8 24.3381 8.53854 23.0377 9.61563 21.956C10.6927 20.8742 11.9875 20.3333 13.5 20.3333H16.25V14.8095C16.25 10.9889 17.5906 7.73214 20.2719 5.03929C22.9531 2.34643 26.1958 1 30 1C33.8042 1 37.0469 2.34643 39.7281 5.03929C42.4094 7.73214 43.75 10.9889 43.75 14.8095V20.3333H46.5C48.0125 20.3333 49.3073 20.8742 50.3844 21.956C51.4615 23.0377 52 24.3381 52 25.8571V53.4762C52 54.9952 51.4615 56.2956 50.3844 57.3774C49.3073 58.4591 48.0125 59 46.5 59H13.5ZM13.5 53.4762H46.5V25.8571H13.5V53.4762ZM30 45.1905C31.5125 45.1905 32.8073 44.6496 33.8844 43.5679C34.9615 42.4861 35.5 41.1857 35.5 39.6667C35.5 38.1476 34.9615 36.8472 33.8844 35.7655C32.8073 34.6837 31.5125 34.1429 30 34.1429C28.4875 34.1429 27.1927 34.6837 26.1156 35.7655C25.0385 36.8472 24.5 38.1476 24.5 39.6667C24.5 41.1857 25.0385 42.4861 26.1156 43.5679C27.1927 44.6496 28.4875 45.1905 30 45.1905ZM21.75 20.3333H38.25V14.8095C38.25 12.5079 37.4479 10.5516 35.8438 8.94048C34.2396 7.32937 32.2917 6.52381 30 6.52381C27.7083 6.52381 25.7604 7.32937 24.1562 8.94048C22.5521 10.5516 21.75 12.5079 21.75 14.8095V20.3333Z" fill="url(#paint0_linear_7_9017)"/>
<defs>
<linearGradient id="paint0_linear_7_9017" x1="3.96667" y1="1" x2="52.0687" y2="62.6172" gradientUnits="userSpaceOnUse">
<stop stop-color="#6666CC"/>
<stop offset="0.5" stop-color="#8484DC"/>
<stop offset="1" stop-color="#6666CC"/>
</linearGradient>
</defs>
</svg>
