<svg width="202" height="202" viewBox="0 0 202 202" fill="none" xmlns="http://www.w3.org/2000/svg">
<g filter="url(#filter0_d_7_9751)">
<path d="M9.243 65.1967C7.85247 65.1967 6.51889 64.6437 5.53564 63.6592C4.55239 62.6748 4 61.3396 4 59.9474V5.24934C4 3.85713 4.55239 2.52193 5.53564 1.53749C6.51889 0.553049 7.85247 0 9.243 0H63.9537C65.3442 0 66.6778 0.553049 67.6611 1.53749C68.6443 2.52193 69.1967 3.85713 69.1967 5.24934C69.1967 6.64155 68.6443 7.97673 67.6611 8.96117C66.6778 9.94561 65.3442 10.4987 63.9537 10.4987H14.486V59.9474C14.486 61.3396 13.9336 62.6748 12.9504 63.6592C11.9671 64.6437 10.6335 65.1967 9.243 65.1967Z" fill="#292929" fill-opacity="0.9"/>
<path d="M192.757 65.1967C191.366 65.1967 190.033 64.6437 189.05 63.6592C188.066 62.6748 187.514 61.3396 187.514 59.9474V10.4987H138.046C136.656 10.4987 135.322 9.94561 134.339 8.96117C133.356 7.97673 132.803 6.64155 132.803 5.24934C132.803 3.85713 133.356 2.52193 134.339 1.53749C135.322 0.553049 136.656 0 138.046 0H192.757C194.148 0 195.481 0.553049 196.464 1.53749C197.448 2.52193 198 3.85713 198 5.24934V59.9474C198 61.3396 197.448 62.6748 196.464 63.6592C195.481 64.6437 194.148 65.1967 192.757 65.1967Z" fill="#292929" fill-opacity="0.9"/>
<path d="M192.757 194H138.046C136.656 194 135.322 193.447 134.339 192.462C133.356 191.478 132.803 190.143 132.803 188.751C132.803 187.358 133.356 186.023 134.339 185.039C135.322 184.054 136.656 183.501 138.046 183.501H187.514V134.053C187.514 132.66 188.066 131.325 189.05 130.341C190.033 129.356 191.366 128.803 192.757 128.803C194.148 128.803 195.481 129.356 196.464 130.341C197.448 131.325 198 132.66 198 134.053V188.829C197.979 190.208 197.418 191.523 196.437 192.49C195.456 193.458 194.134 194 192.757 194Z" fill="#292929" fill-opacity="0.9"/>
<path d="M63.9537 193.921H9.243C7.85247 193.921 6.51889 193.369 5.53564 192.386C4.55239 191.402 4 190.069 4 188.678V134.046C4 132.656 4.55239 131.322 5.53564 130.339C6.51889 129.356 7.85247 128.803 9.243 128.803C10.6335 128.803 11.9671 129.356 12.9504 130.339C13.9336 131.322 14.486 132.656 14.486 134.046V183.514H63.9537C65.3442 183.514 66.6778 184.066 67.6611 185.05C68.6443 186.033 69.1967 187.366 69.1967 188.757C69.1967 190.147 68.6443 191.481 67.6611 192.464C66.6778 193.448 65.3442 194 63.9537 194V193.921Z" fill="#292929" fill-opacity="0.9"/>
</g>
<defs>
<filter id="filter0_d_7_9751" x="0" y="0" width="202" height="202" filterUnits="userSpaceOnUse" color-interpolation-filters="sRGB">
<feFlood flood-opacity="0" result="BackgroundImageFix"/>
<feColorMatrix in="SourceAlpha" type="matrix" values="0 0 0 0 0 0 0 0 0 0 0 0 0 0 0 0 0 0 127 0" result="hardAlpha"/>
<feOffset dy="4"/>
<feGaussianBlur stdDeviation="2"/>
<feComposite in2="hardAlpha" operator="out"/>
<feColorMatrix type="matrix" values="0 0 0 0 0 0 0 0 0 0 0 0 0 0 0 0 0 0 0.05 0"/>
<feBlend mode="normal" in2="BackgroundImageFix" result="effect1_dropShadow_7_9751"/>
<feBlend mode="normal" in="SourceGraphic" in2="effect1_dropShadow_7_9751" result="shape"/>
</filter>
</defs>
</svg>
