<svg width="75" height="44" viewBox="0 0 75 44" fill="none" xmlns="http://www.w3.org/2000/svg">
<path fill-rule="evenodd" clip-rule="evenodd" d="M70.2227 32.9197L34.1819 42.4379C30.7555 43.3424 67.7691 30.1039 66.8624 26.6798L66.2131 15.3207C65.7734 13.6531 20.7953 14.2181 21.5721 12.8216C22.39 11.3476 23.7843 10.1971 25.543 9.73236L61.5838 0.214139C65.0102 -0.690299 68.5209 1.35321 69.4253 4.7796L74.7859 25.0782C75.6903 28.5046 73.6468 32.0153 70.2204 32.9197H70.2227Z" fill="#424242"/>
<path d="M62.9393 23.5039H1.90684C0.853721 23.5039 0 24.3576 0 25.4107C0 26.4639 0.853721 27.3176 1.90684 27.3176H62.9393C63.9924 27.3176 64.8462 26.4639 64.8462 25.4107C64.8462 24.3576 63.9924 23.5039 62.9393 23.5039Z" fill="#6666CC"/>
<path fill-rule="evenodd" clip-rule="evenodd" d="M64.0146 9.7666H26.7367C23.1941 9.7666 20.3214 12.6394 20.3214 16.182V16.2025H61.1965C63.2127 16.2025 64.8461 17.8359 64.8461 19.8521C64.8461 21.8683 63.2127 23.5018 61.1965 23.5018H20.3214V27.3154H43.47C44.5225 27.3154 45.3768 28.1698 45.3768 29.2223C45.3768 30.2748 44.5225 31.1291 43.47 31.1291H20.3214V37.1754C20.3214 40.718 23.1941 43.5908 26.7367 43.5908H64.0146C67.5572 43.5908 70.43 40.718 70.43 37.1754V16.182C70.43 12.6394 67.5572 9.7666 64.0146 9.7666Z" fill="#6666CC"/>
<path d="M62.9393 31.1313H16.6444C15.5913 31.1313 14.7375 31.9851 14.7375 33.0382C14.7375 34.0913 15.5913 34.945 16.6444 34.945H62.9393C63.9924 34.945 64.8461 34.0913 64.8461 33.0382C64.8461 31.9851 63.9924 31.1313 62.9393 31.1313Z" fill="#6666CC"/>
<path d="M10.7143 31.1313H8.71409C7.66097 31.1313 6.80725 31.9851 6.80725 33.0382C6.80725 34.0913 7.66097 34.945 8.71409 34.945H10.7143C11.7674 34.945 12.6212 34.0913 12.6212 33.0382C12.6212 31.9851 11.7674 31.1313 10.7143 31.1313Z" fill="#6666CC"/>
</svg>
