<svg width="76" height="74" viewBox="0 0 76 74" fill="none" xmlns="http://www.w3.org/2000/svg">
<path d="M4.61021 45.6648C4.47421 44.7688 4.38472 43.9502 4.25735 43.1375C3.8181 40.3348 3.84546 37.5353 4.30489 34.7403C4.59121 32.9984 5.82462 32.0014 7.36917 32.2267C8.94363 32.4564 9.82794 33.8199 9.56036 35.6052C7.3245 50.5229 19.8479 62.8813 34.7458 60.4589C43.801 58.9866 51.2941 51.225 52.439 42.1319C53.0351 37.398 49.6954 32.8135 44.9314 31.8258C40.102 30.8246 35.2774 33.6618 33.89 38.3249C33.7694 38.7302 33.6879 39.1471 33.5894 39.559C33.2259 41.0805 31.9537 41.9706 30.5082 41.7142C29.0418 41.4542 28.0655 40.0988 28.3741 38.5468C29.4925 32.9222 32.744 29.0108 38.1548 27.1375C43.5743 25.2612 48.6228 26.2832 52.8726 30.1148C57.1426 33.9646 58.6345 38.8916 57.4219 44.5231C55.6117 52.9304 50.8142 59.1139 43.244 63.1633C42.8979 63.3484 42.5363 63.5042 42.18 63.7498C42.05 63.8724 41.9219 63.9191 41.6831 63.941C41.3624 63.984 41.1524 64.0518 40.8607 64.1343C40.3141 64.3282 39.8491 64.5075 39.3177 64.6996C39.0879 64.8315 38.9245 64.9505 38.7611 65.0695C38.5238 65.1559 38.2865 65.2423 37.9294 65.2977C37.7201 65.2803 37.6292 65.2874 37.5415 65.3082C25.7057 68.116 14.1366 63.2955 7.75731 52.9008C7.37439 52.2769 6.967 51.6679 6.571 51.052C5.92712 49.283 5.28324 47.5139 4.61021 45.6648Z" fill="#1E40AF"/>
<path d="M69.4457 31.7967C69.6973 33.0071 69.9314 34.1368 70.1411 35.2709C70.7075 38.3338 70.7203 41.4037 70.2037 44.4732C69.9135 46.1975 68.6529 47.1724 67.0934 46.9145C65.5487 46.6591 64.6905 45.3264 64.9521 43.5895C67.1787 28.8028 54.9732 16.5063 40.1742 18.6268C30.9425 19.9496 23.2157 27.7997 22.1077 36.9817C21.5381 41.7012 24.9326 46.2552 29.7238 47.1994C34.6249 48.1652 39.4429 45.1907 40.7382 40.3971C40.8249 40.0761 40.8838 39.7474 40.9731 39.4272C41.3729 37.9933 42.6852 37.1724 44.1003 37.4643C45.487 37.7504 46.4169 39.0668 46.1561 40.5256C45.4699 44.3626 43.5336 47.4599 40.4172 49.7832C35.4179 53.5102 28.6638 53.6961 23.4575 50.3022C18.2417 46.9023 15.7168 40.6089 17.1068 34.4879C18.9556 26.3468 23.5505 20.2697 30.8335 16.2114C31.0971 16.0645 31.3727 15.9389 31.6437 15.7286C33.3569 15.0306 35.069 14.4075 36.911 13.8121C37.2742 13.7793 37.5063 13.7133 37.7412 13.6591C49.0879 11.0411 61.3575 16.5071 67.035 26.7119C67.6093 27.7441 68.1642 28.7871 68.7281 29.8252C68.9577 30.4561 69.1874 31.0871 69.4457 31.7967Z" fill="#1E40AF"/>
<path d="M12 21.9097C12 21.9097 26.2483 -0.779766 49 2.90972C67.5 5.90974 72 18.9097 72 18.9097" stroke="#1E40AF" stroke-width="5" stroke-linecap="round"/>
</svg>
