<svg width="336" height="323" viewBox="0 0 336 323" fill="none" xmlns="http://www.w3.org/2000/svg">
    <path d="M248.931 317.816L244.409 302.012H248.059L250.675 312.993H250.806L253.692 302.012H256.817L259.696 313.016H259.835L262.45 302.012H266.1L261.578 317.816H258.322L255.313 307.483H255.189L252.187 317.816H248.931ZM269.934 318.039C269.177 318.039 268.503 317.908 267.912 317.646C267.32 317.378 266.852 316.985 266.507 316.465C266.168 315.94 265.998 315.287 265.998 314.505C265.998 313.847 266.119 313.294 266.361 312.846C266.603 312.398 266.932 312.038 267.349 311.766C267.765 311.493 268.239 311.287 268.768 311.148C269.303 311.009 269.864 310.912 270.451 310.855C271.14 310.783 271.696 310.716 272.117 310.655C272.539 310.588 272.845 310.49 273.036 310.361C273.226 310.233 273.321 310.042 273.321 309.79V309.744C273.321 309.255 273.167 308.877 272.858 308.61C272.555 308.342 272.123 308.208 271.562 308.208C270.97 308.208 270.5 308.34 270.15 308.602C269.8 308.859 269.568 309.183 269.455 309.574L266.415 309.327C266.569 308.607 266.873 307.985 267.325 307.46C267.778 306.93 268.362 306.524 269.077 306.241C269.797 305.953 270.631 305.808 271.577 305.808C272.236 305.808 272.866 305.886 273.468 306.04C274.075 306.194 274.612 306.434 275.081 306.758C275.554 307.082 275.927 307.498 276.2 308.008C276.472 308.512 276.609 309.116 276.609 309.821V317.816H273.491V316.172H273.398C273.208 316.542 272.953 316.869 272.634 317.152C272.315 317.43 271.932 317.648 271.485 317.808C271.037 317.962 270.52 318.039 269.934 318.039ZM270.875 315.771C271.359 315.771 271.786 315.675 272.156 315.485C272.526 315.29 272.817 315.027 273.028 314.698C273.239 314.369 273.344 313.996 273.344 313.579V312.321C273.241 312.388 273.1 312.45 272.92 312.507C272.745 312.558 272.547 312.607 272.326 312.653C272.105 312.694 271.883 312.733 271.662 312.769C271.441 312.8 271.24 312.828 271.06 312.854C270.674 312.91 270.337 313 270.049 313.124C269.761 313.247 269.538 313.415 269.378 313.625C269.219 313.831 269.139 314.088 269.139 314.397C269.139 314.845 269.301 315.187 269.625 315.423C269.954 315.655 270.371 315.771 270.875 315.771ZM282.446 302.012V317.816H279.159V302.012H282.446ZM288.367 302.012V317.816H285.079V302.012H288.367ZM296.402 318.047C295.182 318.047 294.133 317.8 293.253 317.306C292.379 316.807 291.705 316.102 291.231 315.192C290.758 314.276 290.522 313.193 290.522 311.943C290.522 310.724 290.758 309.654 291.231 308.733C291.705 307.812 292.371 307.095 293.23 306.58C294.094 306.066 295.108 305.808 296.27 305.808C297.052 305.808 297.78 305.935 298.454 306.187C299.133 306.434 299.725 306.807 300.229 307.306C300.738 307.805 301.134 308.432 301.417 309.188C301.7 309.939 301.842 310.819 301.842 311.827V312.73H291.833V310.693H298.747C298.747 310.22 298.645 309.801 298.439 309.435C298.233 309.07 297.948 308.785 297.582 308.579C297.222 308.368 296.803 308.262 296.324 308.262C295.825 308.262 295.383 308.378 294.997 308.61C294.617 308.836 294.318 309.142 294.102 309.528C293.886 309.909 293.775 310.333 293.77 310.801V312.738C293.77 313.324 293.878 313.831 294.094 314.258C294.316 314.685 294.627 315.014 295.028 315.246C295.429 315.477 295.905 315.593 296.456 315.593C296.821 315.593 297.155 315.542 297.459 315.439C297.762 315.336 298.022 315.182 298.238 314.976C298.454 314.77 298.619 314.518 298.732 314.22L301.772 314.42C301.618 315.151 301.302 315.789 300.823 316.334C300.35 316.874 299.738 317.296 298.987 317.599C298.241 317.898 297.379 318.047 296.402 318.047ZM310.292 305.963V308.432H303.154V305.963H310.292ZM304.774 303.123H308.061V314.173C308.061 314.477 308.108 314.713 308.2 314.883C308.293 315.048 308.422 315.164 308.586 315.23C308.756 315.297 308.951 315.331 309.173 315.331C309.327 315.331 309.481 315.318 309.636 315.292C309.79 315.261 309.908 315.238 309.991 315.223L310.508 317.669C310.343 317.72 310.111 317.78 309.813 317.846C309.515 317.918 309.152 317.962 308.725 317.978C307.933 318.008 307.238 317.903 306.642 317.661C306.05 317.419 305.59 317.044 305.26 316.535C304.931 316.025 304.769 315.382 304.774 314.605V303.123Z" fill="white"/>
    <path d="M23.4218 274.406H4.61182V221.344H23.5773C28.9145 221.344 33.5091 222.406 37.3609 224.531C41.2127 226.638 44.175 229.669 46.2477 233.625C48.3377 237.58 49.3827 242.313 49.3827 247.823C49.3827 253.35 48.3377 258.1 46.2477 262.073C44.175 266.046 41.1955 269.094 37.3091 271.219C33.44 273.343 28.8109 274.406 23.4218 274.406ZM15.8305 264.793H22.9555C26.2718 264.793 29.0614 264.206 31.3241 263.031C33.6041 261.84 35.3141 260 36.4541 257.513C37.6114 255.008 38.19 251.778 38.19 247.823C38.19 243.902 37.6114 240.698 36.4541 238.211C35.3141 235.723 33.6127 233.892 31.35 232.718C29.0873 231.543 26.2977 230.956 22.9814 230.956H15.8305V264.793ZM57.4858 274.406V234.609H68.5231V274.406H57.4858ZM63.0303 229.479C61.3894 229.479 59.9817 228.935 58.8072 227.847C57.6499 226.741 57.0712 225.42 57.0712 223.883C57.0712 222.363 57.6499 221.059 58.8072 219.971C59.9817 218.865 61.3894 218.312 63.0303 218.312C64.6712 218.312 66.0703 218.865 67.2276 219.971C68.4022 221.059 68.9894 222.363 68.9894 223.883C68.9894 225.42 68.4022 226.741 67.2276 227.847C66.0703 228.935 64.6712 229.479 63.0303 229.479ZM95.2936 290.158C91.7182 290.158 88.6523 289.666 86.0959 288.681C83.5568 287.714 81.5359 286.393 80.0332 284.717C78.5305 283.042 77.5545 281.159 77.1055 279.069L87.3136 277.696C87.6245 278.491 88.1168 279.233 88.7905 279.924C89.4641 280.615 90.3536 281.168 91.4591 281.582C92.5818 282.014 93.9464 282.23 95.5527 282.23C97.9536 282.23 99.9314 281.643 101.486 280.468C103.058 279.311 103.844 277.368 103.844 274.639V267.358H103.377C102.894 268.464 102.168 269.509 101.201 270.493C100.234 271.478 98.99 272.281 97.47 272.903C95.95 273.525 94.1364 273.836 92.0291 273.836C89.0409 273.836 86.3205 273.145 83.8677 271.763C81.4323 270.364 79.4891 268.231 78.0382 265.363C76.6045 262.479 75.8877 258.834 75.8877 254.43C75.8877 249.921 76.6218 246.156 78.09 243.133C79.5582 240.111 81.51 237.848 83.9455 236.345C86.3982 234.842 89.0841 234.091 92.0032 234.091C94.2314 234.091 96.0968 234.471 97.5995 235.231C99.1023 235.974 100.311 236.906 101.227 238.029C102.16 239.135 102.876 240.223 103.377 241.294H103.792V234.609H114.751V274.794C114.751 278.18 113.922 281.012 112.264 283.292C110.606 285.572 108.309 287.282 105.372 288.422C102.453 289.58 99.0936 290.158 95.2936 290.158ZM95.5268 265.545C97.3059 265.545 98.8086 265.104 100.035 264.223C101.279 263.325 102.229 262.047 102.885 260.389C103.559 258.713 103.895 256.71 103.895 254.378C103.895 252.046 103.567 250.025 102.911 248.315C102.255 246.588 101.305 245.249 100.061 244.299C98.8173 243.349 97.3059 242.874 95.5268 242.874C93.7132 242.874 92.1845 243.366 90.9409 244.351C89.6973 245.318 88.7559 246.666 88.1168 248.393C87.4777 250.12 87.1582 252.115 87.1582 254.378C87.1582 256.675 87.4777 258.661 88.1168 260.337C88.7732 261.995 89.7145 263.282 90.9409 264.197C92.1845 265.096 93.7132 265.545 95.5268 265.545ZM123.535 274.406V234.609H134.572V274.406H123.535ZM129.079 229.479C127.438 229.479 126.03 228.935 124.856 227.847C123.699 226.741 123.12 225.42 123.12 223.883C123.12 222.363 123.699 221.059 124.856 219.971C126.03 218.865 127.438 218.312 129.079 218.312C130.72 218.312 132.119 218.865 133.276 219.971C134.451 221.059 135.038 222.363 135.038 223.883C135.038 225.42 134.451 226.741 133.276 227.847C132.119 228.935 130.72 229.479 129.079 229.479ZM190.438 239.921H179.09C178.883 238.452 178.46 237.148 177.821 236.008C177.181 234.851 176.361 233.866 175.359 233.055C174.357 232.243 173.2 231.621 171.887 231.189C170.592 230.757 169.184 230.541 167.664 230.541C164.918 230.541 162.526 231.224 160.487 232.588C158.449 233.936 156.869 235.905 155.746 238.496C154.623 241.069 154.062 244.196 154.062 247.875C154.062 251.657 154.623 254.836 155.746 257.409C156.886 259.983 158.475 261.926 160.513 263.239C162.551 264.551 164.909 265.208 167.586 265.208C169.089 265.208 170.48 265.009 171.758 264.612C173.053 264.215 174.202 263.636 175.204 262.876C176.206 262.099 177.035 261.157 177.691 260.052C178.365 258.946 178.831 257.686 179.09 256.269L190.438 256.321C190.145 258.756 189.411 261.106 188.236 263.368C187.079 265.614 185.516 267.626 183.546 269.405C181.595 271.167 179.263 272.566 176.551 273.602C173.856 274.621 170.808 275.131 167.405 275.131C162.672 275.131 158.441 274.06 154.71 271.918C150.996 269.776 148.06 266.676 145.901 262.617C143.759 258.558 142.688 253.644 142.688 247.875C142.688 242.088 143.776 237.166 145.952 233.106C148.129 229.047 151.082 225.956 154.813 223.831C158.544 221.689 162.741 220.618 167.405 220.618C170.48 220.618 173.33 221.05 175.955 221.914C178.598 222.777 180.938 224.038 182.976 225.696C185.015 227.337 186.673 229.35 187.951 231.733C189.246 234.117 190.076 236.846 190.438 239.921ZM198.276 274.406V234.609H208.976V241.553H209.391C210.116 239.083 211.334 237.217 213.044 235.956C214.754 234.678 216.723 234.039 218.951 234.039C219.504 234.039 220.1 234.074 220.739 234.143C221.378 234.212 221.939 234.307 222.423 234.428V244.221C221.905 244.066 221.188 243.928 220.273 243.807C219.357 243.686 218.519 243.626 217.759 243.626C216.136 243.626 214.685 243.98 213.407 244.688C212.146 245.379 211.144 246.346 210.401 247.59C209.676 248.833 209.313 250.267 209.313 251.891V274.406H198.276ZM244.413 275.183C240.32 275.183 236.796 274.354 233.842 272.696C230.906 271.02 228.643 268.654 227.054 265.596C225.465 262.522 224.671 258.886 224.671 254.689C224.671 250.595 225.465 247.002 227.054 243.911C228.643 240.819 230.88 238.409 233.765 236.682C236.667 234.955 240.069 234.091 243.973 234.091C246.598 234.091 249.042 234.514 251.305 235.361C253.585 236.19 255.572 237.442 257.264 239.117C258.974 240.793 260.304 242.9 261.254 245.439C262.204 247.961 262.679 250.915 262.679 254.3V257.331H229.075V250.491H252.29C252.29 248.902 251.944 247.495 251.253 246.268C250.562 245.042 249.604 244.083 248.377 243.392C247.168 242.684 245.761 242.33 244.154 242.33C242.479 242.33 240.993 242.719 239.698 243.496C238.42 244.256 237.418 245.284 236.692 246.579C235.967 247.857 235.596 249.282 235.578 250.854V257.357C235.578 259.326 235.941 261.028 236.667 262.461C237.409 263.895 238.454 265.001 239.802 265.778C241.149 266.555 242.747 266.944 244.595 266.944C245.821 266.944 246.944 266.771 247.963 266.426C248.982 266.08 249.854 265.562 250.58 264.871C251.305 264.18 251.858 263.334 252.238 262.332L262.446 263.006C261.928 265.458 260.866 267.6 259.259 269.431C257.67 271.245 255.615 272.661 253.093 273.68C250.588 274.682 247.695 275.183 244.413 275.183ZM284.547 275.053C281.524 275.053 278.786 274.276 276.333 272.721C273.898 271.15 271.963 268.844 270.53 265.804C269.113 262.746 268.405 258.998 268.405 254.559C268.405 249.999 269.139 246.208 270.608 243.185C272.076 240.145 274.028 237.874 276.463 236.371C278.916 234.851 281.602 234.091 284.521 234.091C286.749 234.091 288.606 234.471 290.091 235.231C291.594 235.974 292.803 236.906 293.718 238.029C294.651 239.135 295.359 240.223 295.843 241.294H296.18V221.344H307.191V274.406H296.309V268.032H295.843C295.325 269.137 294.591 270.234 293.641 271.322C292.708 272.393 291.49 273.283 289.988 273.991C288.502 274.699 286.688 275.053 284.547 275.053ZM288.044 266.27C289.823 266.27 291.326 265.786 292.553 264.819C293.796 263.835 294.746 262.461 295.403 260.7C296.076 258.938 296.413 256.874 296.413 254.507C296.413 252.141 296.085 250.086 295.428 248.341C294.772 246.596 293.822 245.249 292.578 244.299C291.335 243.349 289.823 242.874 288.044 242.874C286.231 242.874 284.702 243.366 283.458 244.351C282.215 245.336 281.273 246.7 280.634 248.445C279.995 250.189 279.676 252.21 279.676 254.507C279.676 256.822 279.995 258.869 280.634 260.648C281.291 262.41 282.232 263.791 283.458 264.793C284.702 265.778 286.231 266.27 288.044 266.27Z" fill="white"/>
    <path fill-rule="evenodd" clip-rule="evenodd" d="M287.74 42.6355H125C109.53 42.6355 96.9902 55.1755 96.9902 70.6455V70.7355H275.43C284.23 70.7355 291.37 77.8755 291.37 86.6755C291.37 95.4755 284.23 102.615 275.43 102.615H96.9902V119.266H198.04C202.64 119.266 206.36 122.995 206.36 127.585C206.36 132.175 202.63 135.906 198.04 135.906H96.9902V162.296C96.9902 177.766 109.53 190.306 125 190.306H287.74C303.21 190.306 315.75 177.766 315.75 162.296V70.6455C315.75 55.1755 303.21 42.6355 287.74 42.6355Z" fill="white"/>
    <path fill-rule="evenodd" clip-rule="evenodd" d="M334.771 109.475L311.36 20.8655C307.41 5.9055 292.08 -3.01443 277.13 0.935567L135.021 38.4655H287.73C305.47 38.4655 319.911 52.8955 319.911 70.6455V141.835C331.741 136.115 338.251 122.655 334.771 109.475Z" fill="white"/>
    <path fill-rule="evenodd" clip-rule="evenodd" d="M287.74 42.6355H125C120.5 42.6355 116.25 43.7055 112.48 45.5955C108.23 48.1555 104.8 51.7555 102.46 55.9755C99.0704 62.0755 295.42 59.6055 297.34 66.8855L300.17 116.465C304.12 131.425 142.54 189.215 157.5 185.266L314.84 143.705C315.15 143.625 315.44 143.536 315.74 143.446V70.6455C315.74 55.1755 303.2 42.6355 287.73 42.6355H287.74Z" fill="white"/>
    <path d="M283.05 135.906H80.9304C76.3354 135.906 72.6104 139.63 72.6104 144.225V144.235C72.6104 148.83 76.3354 152.556 80.9304 152.556H283.05C287.645 152.556 291.37 148.83 291.37 144.235V144.225C291.37 139.63 287.645 135.906 283.05 135.906Z" fill="white"/>
    <path d="M55.0601 135.906H46.3201C41.7251 135.906 38 139.63 38 144.225V144.235C38 148.83 41.7251 152.556 46.3201 152.556H55.0601C59.6551 152.556 63.38 148.83 63.38 144.235V144.225C63.38 139.63 59.6551 135.906 55.0601 135.906Z" fill="white"/>
    <path d="M283.05 102.605H16.6002C12.0052 102.605 8.28027 106.331 8.28027 110.926V110.936C8.28027 115.531 12.0052 119.255 16.6002 119.255H283.05C287.645 119.255 291.37 115.531 291.37 110.936V110.926C291.37 106.331 287.645 102.605 283.05 102.605Z" fill="white"/>
</svg>
